<?xml version="1.0" encoding="UTF-8" standalone="no"?>
<svg width="49px" height="49px" viewBox="0 0 49 49" version="1.1" xmlns="http://www.w3.org/2000/svg" xmlns:xlink="http://www.w3.org/1999/xlink">
    <!-- Generator: sketchtool 3.8.3 (29802) - http://www.bohemiancoding.com/sketch -->
    <title>B5D6F7A6-5570-4168-8854-638E721F7C8F</title>
    <desc>Created with sketchtool.</desc>
    <defs></defs>
    <g id="Charles" stroke="none" stroke-width="1" fill="none" fill-rule="evenodd">
        <g id="Logo" transform="translate(-3.000000, -3.000000)">
            <g id="logo" transform="translate(3.000000, 3.000000)">
                <path d="M24.5,49 C38.0309764,49 49,38.0309764 49,24.5 C49,10.9690236 38.0309764,0 24.5,0 C10.9690236,0 0,10.9690236 0,24.5 C0,38.0309764 10.9690236,49 24.5,49 Z M10.3287257,21.7469868 C10.663139,20.7885735 11.146577,19.9320516 11.7790543,19.1773955 C12.4115316,18.4227393 13.1857595,17.811477 14.1017611,17.3435902 C15.0177627,16.8757034 16.064606,16.6417635 17.2423224,16.6417635 C18.6235947,16.6417635 19.8194677,16.9662608 20.8299774,17.6152651 C21.8404872,18.2642694 22.779224,19.7338106 22.779224,19.7338106 C22.9373003,19.9641611 22.8840432,20.2805807 22.6414263,20.4540256 L21.1776645,21.5004571 C20.9434846,21.6678704 20.6524777,21.6007363 20.5191932,21.3479649 C20.5191932,21.3479649 20.3538058,20.9696964 20.0775513,20.6602874 C19.8012968,20.3508783 19.4996024,20.1056188 19.172459,19.9245013 C18.8453156,19.7433838 18.5072724,19.611321 18.1583194,19.5283088 C17.8093664,19.4452966 17.4749581,19.4037912 17.1550846,19.4037912 C16.4426389,19.4037912 15.8174408,19.5622666 15.2794716,19.8792222 C14.7415024,20.1961777 14.2944131,20.6074592 13.9381902,21.1130788 C13.5819674,21.6186984 13.3129868,22.1922284 13.1312404,22.8336862 C12.9494941,23.4751439 12.8586223,24.1128187 12.8586223,24.7467299 C12.8586223,25.4561067 12.9640336,26.1390602 13.1748593,26.7956111 C13.3856851,27.4521619 13.6837447,28.0294652 14.0690469,28.5275382 C14.4543492,29.0256113 14.915978,29.425573 15.4539472,29.7274355 C15.9919164,30.0292979 16.5807658,30.1802269 17.2205129,30.1802269 C17.5549262,30.1802269 17.8966042,30.1349482 18.2455572,30.0443895 C18.5945102,29.9538307 18.9325534,29.8104482 19.2596968,29.6142376 C19.5868402,29.418027 19.8885347,29.165221 20.1647891,28.855812 C20.4410436,28.546403 20.6001017,28.1908017 20.6001017,28.1908017 C20.7330811,27.939154 21.0342648,27.850625 21.2929036,28.0050622 L22.8533289,28.9368163 C23.1029735,29.085883 23.1976346,29.4131853 23.0613694,29.6623161 C23.0613694,29.6623161 22.7346719,30.3424749 22.2912108,30.8028151 C21.8477497,31.2631553 21.3425024,31.6517974 20.7754538,31.968753 C20.2084052,32.2857086 19.6122861,32.5271949 18.9870786,32.6932193 C18.3618712,32.8592436 17.7439429,32.9422545 17.1332751,32.9422545 C16.0573367,32.9422545 15.0722862,32.7007682 14.1780942,32.2177883 C13.2839021,31.7348083 12.5133092,31.1046799 11.8662922,30.3273841 C11.2192751,29.5500883 10.7176627,28.6671539 10.3614399,27.6785543 C10.005217,26.6899548 9.82710827,25.682504 9.82710827,24.6561716 C9.82710827,23.6751186 9.99431241,22.7054 10.3287257,21.7469868 Z M37.855231,16.7323218 C38.1426684,16.7323218 38.3756826,16.9595503 38.3756826,17.2489303 L38.3756826,32.2898086 C38.3756826,32.5751236 38.1412275,32.8064171 37.855231,32.8064171 L35.9082391,32.8064171 C35.6208016,32.8064171 35.3877875,32.5781796 35.3877875,32.2908179 L35.3877875,26.4622263 C35.3877875,26.1774688 35.1541315,25.9466271 34.8713957,25.9466271 L28.8815353,25.9466271 C28.59634,25.9466271 28.3651435,26.1748646 28.3651435,26.4622263 L28.3651435,32.2908179 C28.3651435,32.5755755 28.1289771,32.8064171 27.840893,32.8064171 L25.8796895,32.8064171 C25.5901539,32.8064171 25.355439,32.5791886 25.355439,32.2898086 L25.355439,17.2489303 C25.355439,16.9636153 25.5916055,16.7323218 25.8796895,16.7323218 L27.840893,16.7323218 C28.1304286,16.7323218 28.3651435,16.9635733 28.3651435,17.2421742 L28.3651435,22.7200263 C28.3651435,23.00161 28.5987995,23.2298786 28.8815353,23.2298786 L34.8713957,23.2298786 C35.156591,23.2298786 35.3877875,22.9986272 35.3877875,22.7200263 L35.3877875,17.2421742 C35.3877875,16.9605905 35.6222426,16.7323218 35.9082391,16.7323218 L37.855231,16.7323218 Z" id="Combined-Shape" fill="#64D9E6"></path>
                <g id="Group" transform="translate(9.800000, 16.036364)"></g>
            </g>
        </g>
    </g>
</svg>